<svg xmlns="http://www.w3.org/2000/svg" viewBox="0 0 1024 1024">
  <path d="M585.00 122.00L584.93 120.53L584.71 119.07L584.35 117.65L583.86 116.26L583.23 114.93L582.47 113.67L581.60 112.48L580.61 111.39L579.52 110.40L578.33 109.53L577.07 108.77L575.74 108.14L574.35 107.65L572.93 107.29L571.47 107.07L570.00 107.00L454.00 107.00L452.53 107.07L451.07 107.29L449.65 107.65L448.26 108.14L446.93 108.77L445.67 109.53L444.48 110.40L443.39 111.39L442.40 112.48L441.53 113.67L440.77 114.93L440.14 116.26L439.65 117.65L439.29 119.07L439.07 120.53L439.00 122.00L439.00 323.00L356.00 323.00L354.52 323.07L353.06 323.29L351.62 323.65L350.23 324.15L348.90 324.79L347.63 325.55L346.44 326.44L345.35 327.44L344.36 328.54L343.49 329.73L342.73 331.00L342.11 332.34L341.62 333.74L341.27 335.18L341.06 336.64L341.00 338.12L341.09 339.60L341.32 341.06L341.69 342.49L342.20 343.88L342.85 345.21L343.62 346.47L499.62 574.47L500.50 575.63L501.49 576.70L502.57 577.67L503.75 578.53L505.00 579.27L506.32 579.88L507.69 580.37L509.11 580.72L510.55 580.93L512.00 581.00L513.45 580.93L514.89 580.72L516.31 580.37L517.68 579.88L519.00 579.27L520.25 578.53L521.43 577.67L522.51 576.70L523.50 575.63L524.38 574.47L680.38 346.47L681.15 345.21L681.80 343.88L682.31 342.49L682.68 341.06L682.91 339.60L683.00 338.12L682.94 336.64L682.73 335.18L682.38 333.74L681.89 332.34L681.27 331.00L680.51 329.73L679.64 328.54L678.65 327.44L677.56 326.44L676.37 325.55L675.10 324.79L673.77 324.15L672.38 323.65L670.94 323.29L669.48 323.07L668.00 323.00L585.00 323.00L585.00 122.00Z" fill="#3d0a24" fill-rule="evenodd"/>
</svg>
