<svg xmlns="http://www.w3.org/2000/svg" viewBox="0 0 1024 1024">
  <path d="M262.70 773.46L263.60 779.40L264.58 785.03L265.64 790.38L266.78 795.49L268.01 800.36L269.31 805.02L270.70 809.49L272.17 813.77L273.73 817.88L275.37 821.83L277.10 825.63L278.92 829.27L280.83 832.78L282.83 836.16L284.93 839.40L287.11 842.52L289.40 845.52L291.78 848.40L294.26 851.17L296.85 853.83L299.54 856.38L302.34 858.82L305.25 861.17L308.28 863.41L311.43 865.55L314.71 867.59L318.11 869.54L321.66 871.40L325.34 873.16L329.18 874.82L333.18 876.40L337.35 877.89L341.71 879.29L346.26 880.60L351.03 881.82L356.03 882.95L361.28 884.00L366.83 884.96L372.70 885.84L378.95 886.63L385.62 887.34L392.81 887.97L400.63 888.51L409.24 888.96L418.90 889.34L430.05 889.63L443.54 889.83L461.69 889.96L512.00 890.00L562.31 889.96L580.46 889.83L593.95 889.63L605.10 889.34L614.76 888.96L623.37 888.51L631.19 887.97L638.38 887.34L645.05 886.63L651.30 885.84L657.17 884.96L662.72 884.00L667.97 882.95L672.97 881.82L677.74 880.60L682.29 879.29L686.65 877.89L690.82 876.40L694.82 874.82L698.66 873.16L702.34 871.40L705.89 869.54L709.29 867.59L712.57 865.55L715.72 863.41L718.75 861.17L721.66 858.82L724.46 856.38L727.15 853.83L729.74 851.17L732.22 848.40L734.60 845.52L736.89 842.52L739.07 839.40L741.17 836.16L743.17 832.78L745.08 829.27L746.90 825.63L748.63 821.83L750.27 817.88L751.83 813.77L753.30 809.49L754.69 805.02L755.99 800.36L757.22 795.49L758.36 790.38L759.42 785.03L760.40 779.40L761.30 773.46L761.49 772.00L262.51 772.00L262.70 773.46Z" fill="#ffffff" fill-rule="evenodd"/>
</svg>
