<svg xmlns="http://www.w3.org/2000/svg" viewBox="0 0 1024 1024">
  <path d="M766.00 618.00L765.96 671.88L765.85 691.31L765.65 705.76L765.38 717.69L765.03 728.04L764.61 737.26L764.10 745.63L763.52 753.33L762.86 760.48L762.12 767.17L761.30 773.46L760.40 779.40L759.42 785.03L758.36 790.38L757.22 795.49L755.99 800.36L754.69 805.02L753.30 809.49L751.83 813.77L750.27 817.88L748.63 821.83L746.90 825.63L745.08 829.27L743.17 832.78L741.17 836.16L739.07 839.40L736.89 842.52L734.60 845.52L732.22 848.40L729.74 851.17L727.15 853.83L724.46 856.38L721.66 858.82L718.75 861.17L715.72 863.41L712.57 865.55L709.29 867.59L705.89 869.54L702.34 871.40L698.66 873.16L694.82 874.82L690.82 876.40L686.65 877.89L682.29 879.29L677.74 880.60L672.97 881.82L667.97 882.95L662.72 884.00L657.17 884.96L651.30 885.84L645.05 886.63L638.38 887.34L631.19 887.97L623.37 888.51L614.76 888.96L605.10 889.34L593.95 889.63L580.46 889.83L562.31 889.96L512.00 890.00L461.69 889.96L443.54 889.83L430.05 889.63L418.90 889.34L409.24 888.96L400.63 888.51L392.81 887.97L385.62 887.34L378.95 886.63L372.70 885.84L366.83 884.96L361.28 884.00L356.03 882.95L351.03 881.82L346.26 880.60L341.71 879.29L337.35 877.89L333.18 876.40L329.18 874.82L325.34 873.16L321.66 871.40L318.11 869.54L314.71 867.59L311.43 865.55L308.28 863.41L305.25 861.17L302.34 858.82L299.54 856.38L296.85 853.83L294.26 851.17L291.78 848.40L289.40 845.52L287.11 842.52L284.93 839.40L282.83 836.16L280.83 832.78L278.92 829.27L277.10 825.63L275.37 821.83L273.73 817.88L272.17 813.77L270.70 809.49L269.31 805.02L268.01 800.36L266.78 795.49L265.64 790.38L264.58 785.03L263.60 779.40L262.70 773.46L261.88 767.17L261.14 760.48L260.48 753.33L259.90 745.63L259.39 737.26L258.97 728.04L258.62 717.69L258.35 705.76L258.15 691.31L258.04 671.88L258.00 618.00L258.04 564.12L258.15 544.69L258.35 530.24L258.62 518.31L258.97 507.96L259.39 498.74L259.90 490.37L260.48 482.67L261.14 475.52L261.88 468.83L262.70 462.54L263.60 456.60L264.58 450.97L265.64 445.62L266.78 440.51L268.01 435.64L269.31 430.98L270.70 426.51L272.17 422.23L273.73 418.12L275.37 414.17L277.10 410.37L278.92 406.73L280.83 403.22L282.83 399.84L284.93 396.60L287.11 393.48L289.40 390.48L291.78 387.60L294.26 384.83L296.85 382.17L299.54 379.62L302.34 377.18L305.25 374.83L308.28 372.59L311.43 370.45L314.71 368.41L318.11 366.46L321.66 364.60L325.34 362.84L329.18 361.18L333.18 359.60L337.35 358.11L341.71 356.71L346.26 355.40L351.03 354.18L356.03 353.05L361.28 352.00L366.83 351.04L372.70 350.16L378.95 349.37L385.62 348.66L392.81 348.03L400.63 347.49L409.24 347.04L418.90 346.66L430.05 346.37L443.54 346.17L461.69 346.04L512.00 346.00L562.31 346.04L580.46 346.17L593.95 346.37L605.10 346.66L614.76 347.04L623.37 347.49L631.19 348.03L638.38 348.66L645.05 349.37L651.30 350.16L657.17 351.04L662.72 352.00L667.97 353.05L672.97 354.18L677.74 355.40L682.29 356.71L686.65 358.11L690.82 359.60L694.82 361.18L698.66 362.84L702.34 364.60L705.89 366.46L709.29 368.41L712.57 370.45L715.72 372.59L718.75 374.83L721.66 377.18L724.46 379.62L727.15 382.17L729.74 384.83L732.22 387.60L734.60 390.48L736.89 393.48L739.07 396.60L741.17 399.84L743.17 403.22L745.08 406.73L746.90 410.37L748.63 414.17L750.27 418.12L751.83 422.23L753.30 426.51L754.69 430.98L755.99 435.64L757.22 440.51L758.36 445.62L759.42 450.97L760.40 456.60L761.30 462.54L762.12 468.83L762.86 475.52L763.52 482.67L764.10 490.37L764.61 498.74L765.03 507.96L765.38 518.31L765.65 530.24L765.85 544.69L765.96 564.12L766.00 618.00Z" fill="#ffffff" fill-rule="evenodd"/>
</svg>
