<svg xmlns="http://www.w3.org/2000/svg" viewBox="0 0 1024 1024">
  <path d="M726.00 831.00L725.99 831.47L725.98 831.94L725.94 832.41L725.90 832.88L725.85 833.35L725.78 833.82L725.70 834.28L725.61 834.74L725.50 835.20L725.39 835.66L725.26 836.11L725.12 836.56L724.97 837.01L724.80 837.45L724.63 837.89L724.44 838.32L724.25 838.75L724.04 839.17L723.82 839.59L723.59 840.00L723.35 840.40L723.10 840.80L722.83 841.20L722.56 841.58L722.28 841.96L721.99 842.33L721.69 842.69L721.38 843.04L721.06 843.39L720.73 843.73L720.39 844.06L720.04 844.38L719.69 844.69L719.33 844.99L718.96 845.28L718.58 845.56L718.20 845.83L717.80 846.10L717.40 846.35L717.00 846.59L716.59 846.82L716.17 847.04L715.75 847.25L715.32 847.44L714.89 847.63L714.45 847.80L714.01 847.97L713.56 848.12L713.11 848.26L712.66 848.39L712.20 848.50L711.74 848.61L711.28 848.70L710.82 848.78L710.35 848.85L709.88 848.90L709.41 848.94L708.94 848.98L708.47 848.99L708.00 849.00L707.53 848.99L707.06 848.98L706.59 848.94L706.12 848.90L705.65 848.85L705.18 848.78L704.72 848.70L704.26 848.61L703.80 848.50L703.34 848.39L702.89 848.26L702.44 848.12L701.99 847.97L701.55 847.80L701.11 847.63L700.68 847.44L700.25 847.25L699.83 847.04L699.41 846.82L699.00 846.59L698.60 846.35L698.20 846.10L697.80 845.83L697.42 845.56L697.04 845.28L696.67 844.99L696.31 844.69L695.96 844.38L695.61 844.06L695.27 843.73L694.94 843.39L694.62 843.04L694.31 842.69L694.01 842.33L693.72 841.96L693.44 841.58L693.17 841.20L692.90 840.80L692.65 840.40L692.41 840.00L692.18 839.59L691.96 839.17L691.75 838.75L691.56 838.32L691.37 837.89L691.20 837.45L691.03 837.01L690.88 836.56L690.74 836.11L690.61 835.66L690.50 835.20L690.39 834.74L690.30 834.28L690.22 833.82L690.15 833.35L690.10 832.88L690.06 832.41L690.02 831.94L690.01 831.47L690.00 831.00L690.01 830.53L690.02 830.06L690.06 829.59L690.10 829.12L690.15 828.65L690.22 828.18L690.30 827.72L690.39 827.26L690.50 826.80L690.61 826.34L690.74 825.89L690.88 825.44L691.03 824.99L691.20 824.55L691.37 824.11L691.56 823.68L691.75 823.25L691.96 822.83L692.18 822.41L692.41 822.00L692.65 821.60L692.90 821.20L693.17 820.80L693.44 820.42L693.72 820.04L694.01 819.67L694.31 819.31L694.62 818.96L694.94 818.61L695.27 818.27L695.61 817.94L695.96 817.62L696.31 817.31L696.67 817.01L697.04 816.72L697.42 816.44L697.80 816.17L698.20 815.90L698.60 815.65L699.00 815.41L699.41 815.18L699.83 814.96L700.25 814.75L700.68 814.56L701.11 814.37L701.55 814.20L701.99 814.03L702.44 813.88L702.89 813.74L703.34 813.61L703.80 813.50L704.26 813.39L704.72 813.30L705.18 813.22L705.65 813.15L706.12 813.10L706.59 813.06L707.06 813.02L707.53 813.01L708.00 813.00L708.47 813.01L708.94 813.02L709.41 813.06L709.88 813.10L710.35 813.15L710.82 813.22L711.28 813.30L711.74 813.39L712.20 813.50L712.66 813.61L713.11 813.74L713.56 813.88L714.01 814.03L714.45 814.20L714.89 814.37L715.32 814.56L715.75 814.75L716.17 814.96L716.59 815.18L717.00 815.41L717.40 815.65L717.80 815.90L718.20 816.17L718.58 816.44L718.96 816.72L719.33 817.01L719.69 817.31L720.04 817.62L720.39 817.94L720.73 818.27L721.06 818.61L721.38 818.96L721.69 819.31L721.99 819.67L722.28 820.04L722.56 820.42L722.83 820.80L723.10 821.20L723.35 821.60L723.59 822.00L723.82 822.41L724.04 822.83L724.25 823.25L724.44 823.68L724.63 824.11L724.80 824.55L724.97 824.99L725.12 825.44L725.26 825.89L725.39 826.34L725.50 826.80L725.61 827.26L725.70 827.72L725.78 828.18L725.85 828.65L725.90 829.12L725.94 829.59L725.98 830.06L725.99 830.53L726.00 831.00Z" fill="#3d0a24" fill-rule="evenodd"/>
</svg>
