<?xml version="1.0" encoding="UTF-8"?>
<svg version="1.1" xmlns="http://www.w3.org/2000/svg" viewBox="0 0 741.92 741.92">
 <circle cx="370.96" cy="370.96" r="370.96" fill="black" fill-opacity="0.85"/>
 <path d="M252.799 371.458C252.799 436.477 306.517 489.965 370.845 489.965C389.762 489.965 407.194 484.279 421.808 474.598C387.416 533.374 322.723 569.25 245.666 569.25C233.122 569.25 224.257 578.728 224.257 590.147C224.257 600.952 233.122 610.532 245.666 610.532C380.914 610.532 489.122 513.32 489.122 371.458C489.122 306.619 435.122 253.13 370.845 253.13C352.158 253.13 334.496 258.587 319.831 268.729C354.043 209.722 418.685 173.615 496.254 173.615C508.747 173.615 517.432 164.368 517.432 152.949C517.432 141.632 508.517 132.564 496.254 132.564C360.776 132.564 252.799 229.545 252.799 371.458ZM447.789 371.458C447.789 413.972 413.359 448.402 370.845 448.402C328.331 448.402 293.9 413.972 293.9 371.458C293.9 328.893 328.331 294.744 370.845 294.744C413.359 294.744 447.789 328.893 447.789 371.458ZM335.278 371.458C335.278 391.044 351.489 407.025 370.845 407.025C390.431 407.025 406.412 390.712 406.412 371.458C406.412 351.821 390.431 335.891 370.845 335.891C351.489 335.891 335.278 351.821 335.278 371.458Z" fill="white"/>
</svg>
